<svg width="96" height="94" viewBox="0 0 96 94" fill="none" xmlns="http://www.w3.org/2000/svg">
<g id="icon" clip-path="url(#clip0_20_1009)">
<path id="Vector" fill-rule="evenodd" clip-rule="evenodd" d="M48.3305 94C60.8522 94 72.8611 89.0482 81.7153 80.234C90.5694 71.4198 95.5437 59.4652 95.5437 47C95.5437 34.5348 90.5694 22.5802 81.7153 13.766C72.8611 4.95177 60.8522 0 48.3305 0C35.8088 0 23.8 4.95177 14.9458 13.766C6.09166 22.5802 1.11743 34.5348 1.11743 47C1.11743 59.4652 6.09166 71.4198 14.9458 80.234C23.8 89.0482 35.8088 94 48.3305 94ZM19.326 69.231C19.1119 69.154 18.9153 69.0357 18.7472 68.883C18.5792 68.7303 18.443 68.5461 18.3465 68.3409C18.2501 68.1357 18.1952 67.9136 18.185 67.6873C18.1748 67.461 18.2096 67.2349 18.2873 67.022L36.543 17.1237C36.8105 16.3403 37.6132 15.9017 38.4001 16.027C38.7935 15.9656 39.1962 16.0412 39.5402 16.241C39.8843 16.4408 40.1486 16.7525 40.2886 17.1237L45.0099 30.0173H50.8958L55.5542 17.296C55.8374 16.5127 56.6401 16.0427 57.4427 16.168C57.8376 16.1125 58.2397 16.1944 58.5809 16.3999C58.9221 16.6055 59.1816 16.922 59.3155 17.296L77.5555 67.1787C77.7141 67.6087 77.6946 68.0839 77.5013 68.4996C77.3079 68.9154 76.9566 69.2376 76.5247 69.3955C76.0927 69.5534 75.6153 69.534 75.1977 69.3415C74.7801 69.1491 74.4564 68.7994 74.2978 68.3693L70.8197 58.8127H55.5542L58.5443 67.022C58.6218 67.2349 58.6564 67.461 58.6462 67.6872C58.6359 67.9135 58.581 68.1355 58.4846 68.3406C58.3881 68.5458 58.252 68.73 58.084 68.8827C57.9161 69.0355 57.7195 69.1538 57.5056 69.231C57.2917 69.3082 57.0647 69.3426 56.8374 69.3324C56.6101 69.3222 56.3871 69.2675 56.181 69.1715C55.9749 69.0755 55.7899 68.94 55.6364 68.7728C55.483 68.6056 55.3641 68.4099 55.2866 68.197L47.9686 48.1593L40.5719 68.3693C40.504 68.5948 40.3905 68.804 40.2383 68.9841C40.0861 69.1642 39.8985 69.3114 39.6869 69.4166C39.4754 69.5217 39.2445 69.5826 39.0084 69.5955C38.7724 69.6084 38.5361 69.573 38.3143 69.4916C38.0925 69.4101 37.8898 69.2843 37.7187 69.1218C37.5477 68.9594 37.4118 68.7638 37.3196 68.5471C37.2273 68.3304 37.1807 68.0972 37.1824 67.8618C37.1842 67.6265 37.2344 67.394 37.3299 67.1787L40.383 58.8127H24.9915L21.5607 68.2127C21.4014 68.6401 21.0784 68.9872 20.6625 69.1781C20.2466 69.3689 19.7717 69.388 19.3417 69.231H19.326ZM66.303 46.5143L69.545 55.366H54.2637L51.0217 46.4987H66.303V46.5143ZM26.2348 55.366H41.6263L44.8683 46.4987H29.4768L26.2348 55.366ZM61.5345 33.464L65.044 43.052H49.8099L53.3194 33.464H61.5345ZM42.5705 33.464L46.0801 43.052H30.7358L34.2453 33.464H42.5863H42.5705ZM41.3115 30.0173L38.4001 22.0587L35.5043 30.0173H41.3273H41.3115ZM46.2532 33.464L47.9528 38.0857L49.6368 33.464H46.2689H46.2532ZM60.2755 30.0173L57.4427 22.231L54.5784 30.0173H60.2755Z" fill="#F7F6E8"/>
</g>
<defs>
<clipPath id="clip0_20_1009">
<rect width="96" height="94" fill="white"/>
</clipPath>
</defs>
</svg>
